<?xml version="1.0" encoding="utf-8"?>
<!-- Generator: Adobe Illustrator 26.0.1, SVG Export Plug-In . SVG Version: 6.00 Build 0)  -->
<svg version="1.1" id="Capa_1" xmlns="http://www.w3.org/2000/svg" xmlns:xlink="http://www.w3.org/1999/xlink" x="0px" y="0px"
	 viewBox="0 0 297 297" style="enable-background:new 0 0 297 297;" xml:space="preserve">
<style type="text/css">
	.st0{fill:#FFFFFF;}
</style>
<g>
	<path class="st0" d="M232.4,62c2.7,0,5.3-1.1,7.2-3c1.9-1.9,3-4.5,3-7.2s-1.1-5.3-3-7.2c-1.9-1.9-4.5-3-7.2-3c-2.7,0-5.3,1.1-7.2,3
		c-1.9,1.9-3,4.5-3,7.2s1.1,5.3,3,7.2C227.1,60.9,229.8,62,232.4,62z"/>
	<path class="st0" d="M64.6,129.1c2.7,0,5.3-1.1,7.2-3c1.9-1.9,3-4.5,3-7.2c0-2.7-1.1-5.3-3-7.2c-1.9-1.9-4.5-3-7.2-3
		c-2.7,0-5.3,1.1-7.2,3c-1.9,1.9-3,4.5-3,7.2s1.1,5.3,3,7.2C59.3,128.1,61.9,129.1,64.6,129.1z"/>
	<path class="st0" d="M81.4,45.2c2.7,0,5.3-1.1,7.2-3c1.9-1.9,3-4.5,3-7.2c0-2.7-1.1-5.3-3-7.2c-1.9-1.9-4.5-3-7.2-3s-5.3,1.1-7.2,3
		c-1.9,1.9-3,4.5-3,7.2s1.1,5.3,3,7.2C76.1,44.1,78.7,45.2,81.4,45.2z"/>
	<path class="st0" d="M215.6,129.1c2.7,0,5.3-1.1,7.2-3c1.9-1.9,3-4.5,3-7.2c0-2.7-1.1-5.3-3-7.2c-1.9-1.9-4.5-3-7.2-3
		c-2.7,0-5.3,1.1-7.2,3c-1.9,1.9-3,4.5-3,7.2s1.1,5.3,3,7.2C210.3,128.1,213,129.1,215.6,129.1z"/>
	<path class="st0" d="M273.2,145.4c-1.9-1.9-4.5-3-7.2-3c-2.7,0-5.3,1.1-7.2,3c-1.9,1.9-3,4.5-3,7.2c0,2.7,1.1,5.3,3,7.2
		c1.9,1.9,4.5,3,7.2,3c2.7,0,5.3-1.1,7.2-3c1.9-1.9,3-4.5,3-7.2S275.1,147.2,273.2,145.4z"/>
	<path class="st0" d="M41.2,202.9c0-2.7-1.1-5.3-3-7.2c-1.9-1.9-4.5-3-7.2-3c-2.7,0-5.3,1.1-7.2,3c-1.9,1.9-3,4.5-3,7.2
		c0,2.7,1.1,5.3,3,7.2c1.9,1.9,4.5,3,7.2,3c2.7,0,5.3-1.1,7.2-3C40.1,208.2,41.2,205.6,41.2,202.9z"/>
	<path class="st0" d="M249.2,297c3.4,0,6.6-1.7,8.5-4.6c1.9-2.9,2.2-6.5,0.9-9.6L165.1,64.7c10.5-5.9,17.6-17.2,17.6-30.2
		c0-19-15.3-34.5-34.2-34.5s-34.2,15.5-34.2,34.5c0,13,7.1,24.3,17.6,30.2L38.4,282.8c-1.3,3.1-1,6.8,0.9,9.6
		c1.9,2.9,5.1,4.6,8.5,4.6H249.2z M106.8,174.9l66.3-39.8l12.6,29.4L83.5,229.2L106.8,174.9z M120.5,143l28-65.3l16.5,38.6
		L120.5,143z M148.5,20.3c7.6,0,13.8,6.4,13.8,14.2c0,7.8-6.2,14.2-13.8,14.2s-13.8-6.4-13.8-14.2C134.7,26.7,140.9,20.3,148.5,20.3
		z M69.4,262l124.4-78.5l12.8,29.9l-98.8,63.3H63.2L69.4,262z M145.6,276.7l69.2-44.3l19,44.3H145.6z"/>
</g>
</svg>
